<svg width="265" height="200" viewBox="0 0 265 200" fill="none" xmlns="http://www.w3.org/2000/svg">
<path d="M1.968 83.4H9.936C12.656 83.4 14.64 84.04 15.888 85.32C17.136 86.568 17.76 88.504 17.76 91.128V92.472C17.76 94.2 17.472 95.608 16.896 96.696C16.352 97.784 15.504 98.568 14.352 99.048V99.144C16.976 100.04 18.288 102.376 18.288 106.152V109.032C18.288 111.624 17.6 113.608 16.224 114.984C14.88 116.328 12.896 117 10.272 117H1.968V83.4ZM9.312 97.08C10.368 97.08 11.152 96.808 11.664 96.264C12.208 95.72 12.48 94.808 12.48 93.528V91.656C12.48 90.44 12.256 89.56 11.808 89.016C11.392 88.472 10.72 88.2 9.792 88.2H7.248V97.08H9.312ZM10.272 112.2C11.2 112.2 11.888 111.96 12.336 111.48C12.784 110.968 13.008 110.104 13.008 108.888V105.96C13.008 104.424 12.736 103.368 12.192 102.792C11.68 102.184 10.816 101.88 9.6 101.88H7.248V112.2H10.272ZM34.0063 117.48C31.4143 117.48 29.4303 116.744 28.0543 115.272C26.6783 113.8 25.9902 111.72 25.9902 109.032V91.368C25.9902 88.68 26.6783 86.6 28.0543 85.128C29.4303 83.656 31.4143 82.92 34.0063 82.92C36.5983 82.92 38.5823 83.656 39.9583 85.128C41.3343 86.6 42.0223 88.68 42.0223 91.368V109.032C42.0223 111.72 41.3343 113.8 39.9583 115.272C38.5823 116.744 36.5983 117.48 34.0063 117.48ZM34.0063 112.68C35.8303 112.68 36.7422 111.576 36.7422 109.368V91.032C36.7422 88.824 35.8303 87.72 34.0063 87.72C32.1823 87.72 31.2703 88.824 31.2703 91.032V109.368C31.2703 111.576 32.1823 112.68 34.0063 112.68ZM58.273 117.48C55.713 117.48 53.761 116.76 52.417 115.32C51.073 113.848 50.401 111.752 50.401 109.032V83.4H55.681V109.416C55.681 110.568 55.905 111.4 56.353 111.912C56.833 112.424 57.505 112.68 58.369 112.68C59.233 112.68 59.889 112.424 60.337 111.912C60.817 111.4 61.057 110.568 61.057 109.416V83.4H66.145V109.032C66.145 111.752 65.473 113.848 64.129 115.32C62.785 116.76 60.833 117.48 58.273 117.48ZM74.9055 83.4H81.5295L86.6655 103.512H86.7615V83.4H91.4655V117H86.0415L79.7055 92.472H79.6095V117H74.9055V83.4ZM100.39 83.4H108.454C111.078 83.4 113.046 84.104 114.358 85.512C115.67 86.92 116.326 88.984 116.326 91.704V108.696C116.326 111.416 115.67 113.48 114.358 114.888C113.046 116.296 111.078 117 108.454 117H100.39V83.4ZM108.358 112.2C109.222 112.2 109.878 111.944 110.326 111.432C110.806 110.92 111.046 110.088 111.046 108.936V91.464C111.046 90.312 110.806 89.48 110.326 88.968C109.878 88.456 109.222 88.2 108.358 88.2H105.67V112.2H108.358Z" fill="black"/>
<path fill-rule="evenodd" clip-rule="evenodd" d="M109.375 141.042L118.125 149.792L165.917 102H148.417L109.375 141.042ZM148.833 98H166.333L118.125 49.7917L109.375 58.5417L148.833 98ZM201.125 102L162.083 141.042L170.833 149.792L218.625 102H201.125ZM219.042 98H201.542L162.083 58.5417L170.833 49.7917L219.042 98Z" fill="black"/>
</svg>
